<svg width="108" height="108" viewBox="0 0 108 108" fill="none" xmlns="http://www.w3.org/2000/svg">
<rect width="108" height="108" fill="#276EFB"/>
<path fill-rule="evenodd" clip-rule="evenodd" d="M36.6943 61H37.5V47.25C37.5 42.7009 41.2009 39 45.75 39H67.75V33.5C67.7484 32.0418 67.1684 30.6438 66.1373 29.6127C65.1062 28.5816 63.7082 28.0016 62.25 28H26.5C25.0418 28.0016 23.6438 28.5816 22.6127 29.6127C21.5816 30.6438 21.0016 32.0418 21 33.5V55.5C21.0016 56.9582 21.5816 58.3562 22.6127 59.3873C23.6438 60.4184 25.0418 60.9984 26.5 61V67.875C26.5 68.147 26.5806 68.4129 26.7317 68.639C26.8827 68.8652 27.0975 69.0415 27.3488 69.1455C27.6001 69.2496 27.8766 69.2769 28.1433 69.2238C28.4101 69.1707 28.6551 69.0397 28.8474 68.8474L36.6943 61ZM45.75 41.75H81.5C82.9582 41.7516 84.3562 42.3316 85.3873 43.3627C86.4184 44.3938 86.9984 45.7918 87 47.25V69.25C86.9984 70.7082 86.4184 72.1062 85.3873 73.1373C84.3562 74.1684 82.9582 74.7484 81.5 74.75H71.0693L65.9724 79.8474C65.8447 79.9751 65.6931 80.0764 65.5263 80.1455C65.3594 80.2146 65.1806 80.2502 65 80.2502C64.8194 80.2502 64.6406 80.2146 64.4737 80.1455C64.3069 80.0764 64.1553 79.9751 64.0276 79.8474L58.9307 74.75H45.75C44.2918 74.7484 42.8938 74.1684 41.8627 73.1373C40.8316 72.1062 40.2516 70.7082 40.25 69.25V47.25C40.2516 45.7918 40.8316 44.3938 41.8627 43.3627C42.8938 42.3316 44.2918 41.7516 45.75 41.75ZM72.3212 51.979C73.9716 53.5982 74.8987 55.7944 74.8987 58.0843C74.8987 62.8528 70.9593 66.719 66.0991 66.719C65.338 66.719 64.5994 66.6242 63.8951 66.446C64.2936 66.3452 64.6853 66.2169 65.0672 66.0618C66.1349 65.6278 67.105 64.9919 67.9222 64.1901C67.105 64.9918 66.135 65.6269 65.0673 66.0608C63.9996 66.4947 62.8553 66.718 61.6996 66.718C60.544 66.718 59.3996 66.4947 58.3319 66.0608C57.2643 65.6269 56.2941 64.9909 55.477 64.1892C54.6598 63.3874 54.0116 62.4356 53.5693 61.3881C53.1271 60.3405 52.8995 59.2178 52.8995 58.0839C52.8997 53.3155 56.8405 49.4501 61.7006 49.4501C62.4614 49.4501 63.1996 49.5448 63.9038 49.7229C64.6149 49.5432 65.3518 49.4501 66.0986 49.4501C68.4325 49.4501 70.6709 50.3598 72.3212 51.979ZM69.2099 55.0316C70.035 55.8411 70.4985 56.9391 70.4986 58.0839H67.7497C66.8384 58.0839 66.1277 58.8332 65.7939 59.6651C65.7845 59.6888 65.7747 59.7124 65.7648 59.736C65.5437 60.2598 65.2196 60.7357 64.8109 61.1366C64.4024 61.5374 63.9173 61.8554 63.3835 62.0724C62.8497 62.2894 62.2775 62.401 61.6996 62.401C61.1218 62.401 60.5496 62.2894 60.0158 62.0724C59.4819 61.8554 58.9969 61.5374 58.5883 61.1366C58.1797 60.7357 57.8556 60.2598 57.6345 59.736C57.4134 59.2123 57.2996 58.6511 57.2995 58.0843H60.0485C60.9598 58.0843 61.6705 57.335 62.0043 56.503C62.2234 55.9568 62.5559 55.4548 62.9872 55.0316C63.8124 54.222 64.9316 53.7672 66.0986 53.7672C67.2655 53.7672 68.3847 54.222 69.2099 55.0316Z" fill="white"/>
</svg>
